<mxfile host="" modified="2020-06-09T12:54:01.435Z" agent="5.0 (X11; Linux x86_64) AppleWebKit/537.36 (KHTML, like Gecko) code-oss/1.45.1 Chrome/78.0.3904.130 Electron/7.1.14 Safari/537.36" etag="yT1nXSc5uq0ToKvteXuS" version="13.1.3">
    <diagram id="6hGFLwfOUW9BJ-s0fimq" name="Page-1">
        <mxGraphModel dx="3431" dy="2334" grid="0" gridSize="10" guides="1" tooltips="1" connect="1" arrows="1" fold="1" page="0" pageScale="1" pageWidth="827" pageHeight="1169" background="#ffffff" math="0" shadow="0">
            <root>
                <mxCell id="0"/>
                <mxCell id="1" parent="0"/>
                <mxCell id="24" value="" style="rounded=0;whiteSpace=wrap;html=1;fillColor=none;strokeColor=#000000;" vertex="1" parent="1">
                    <mxGeometry x="394" y="617" width="1821" height="790" as="geometry"/>
                </mxCell>
                <mxCell id="22" style="edgeStyle=orthogonalEdgeStyle;rounded=0;orthogonalLoop=1;jettySize=auto;html=1;exitX=1;exitY=0.5;exitDx=0;exitDy=0;entryX=0;entryY=0.5;entryDx=0;entryDy=0;strokeColor=#000000;strokeWidth=5;fontSize=22;fontColor=#000000;backgroundOutline=1;" parent="1" source="13" target="16" edge="1">
                    <mxGeometry relative="1" as="geometry"/>
                </mxCell>
                <mxCell id="13" value="Potentiometer&lt;br style=&quot;font-size: 22px;&quot;&gt;" style="rounded=0;whiteSpace=wrap;html=1;strokeColor=#000000;fillColor=none;fontColor=#000000;fontSize=22;backgroundOutline=1;" parent="1" vertex="1">
                    <mxGeometry x="678" y="946" width="264" height="132" as="geometry"/>
                </mxCell>
                <mxCell id="15" value="" style="shape=singleArrow;whiteSpace=wrap;html=1;fillColor=none;strokeColor=#000000;backgroundOutline=1;" parent="1" vertex="1">
                    <mxGeometry x="578" y="982" width="100" height="60" as="geometry"/>
                </mxCell>
                <mxCell id="23" style="edgeStyle=orthogonalEdgeStyle;rounded=0;orthogonalLoop=1;jettySize=auto;html=1;exitX=1;exitY=0.5;exitDx=0;exitDy=0;strokeColor=#000000;strokeWidth=5;fontSize=22;fontColor=#000000;backgroundOutline=1;" parent="1" source="16" target="18" edge="1">
                    <mxGeometry relative="1" as="geometry"/>
                </mxCell>
                <mxCell id="16" value="Signal&lt;br&gt;Conditioning" style="rhombus;whiteSpace=wrap;html=1;strokeColor=#000000;fillColor=none;fontSize=22;fontColor=#000000;backgroundOutline=1;" parent="1" vertex="1">
                    <mxGeometry x="1168" y="875.5" width="273" height="273" as="geometry"/>
                </mxCell>
                <mxCell id="18" value="Arduino + LoRa Shield&lt;br&gt;" style="html=1;whiteSpace=wrap;aspect=fixed;shape=isoCube;backgroundOutline=1;strokeColor=#000000;fillColor=none;fontSize=22;fontColor=#000000;verticalAlign=middle;spacingBottom=200;" parent="1" vertex="1">
                    <mxGeometry x="1667" y="778.5" width="420.3" height="467" as="geometry"/>
                </mxCell>
                <mxCell id="21" value="" style="points=[[0.005,0.09,0],[0.08,0,0],[0.76,0.25,0],[1,0.92,0],[0.91,0.995,0],[0.57,0.995,0],[0.045,0.955,0],[0.005,0.43,0]];verticalLabelPosition=bottom;html=1;verticalAlign=top;aspect=fixed;align=center;pointerEvents=1;shape=mxgraph.cisco19.3g_4g_indicator;fillColor=#000000;strokeColor=none;fontSize=22;fontColor=#000000;strokeWidth=4;backgroundOutline=1;" parent="1" vertex="1">
                    <mxGeometry x="1971" y="656" width="187" height="187" as="geometry"/>
                </mxCell>
            </root>
        </mxGraphModel>
    </diagram>
</mxfile>